<?xml version="1.0" standalone="no"?>
<!DOCTYPE svg PUBLIC "-//W3C//DTD SVG 20010904//EN"
 "http://www.w3.org/TR/2001/REC-SVG-20010904/DTD/svg10.dtd">
<svg version="1.0" xmlns="http://www.w3.org/2000/svg"
 width="132.000000pt" height="121.000000pt" viewBox="0 0 132.000000 121.000000"
 preserveAspectRatio="xMidYMid meet">

<g transform="translate(0.000000,121.000000) scale(0.100000,-0.100000)"
fill="#000000" stroke="none">
<path d="M140 1061 l0 -41 -45 0 -45 0 2 -432 3 -433 268 -3 c251 -2 269 -4
287 -22 26 -26 74 -26 100 0 18 18 36 20 287 22 l268 3 3 433 2 432 -45 0 -45
0 0 41 0 42 -74 -7 c-146 -13 -292 -73 -394 -162 l-52 -46 -52 46 c-103 90
-245 148 -396 162 l-72 7 0 -42z m184 -27 c89 -22 195 -78 260 -135 l56 -51 0
-309 c0 -170 -3 -309 -7 -309 -3 0 -14 6 -22 14 -56 50 -232 112 -351 124
l-75 7 -3 338 -2 337 41 0 c23 0 69 -7 103 -16z m814 -321 l-3 -338 -30 -2
c-73 -6 -175 -27 -236 -49 -69 -25 -155 -69 -164 -85 -21 -33 -25 17 -25 300
l0 309 56 50 c94 84 249 150 357 151 l47 1 -2 -337z m-998 -58 l0 -325 48 0
c27 0 75 -5 108 -11 99 -17 254 -72 241 -85 -4 -4 -175 21 -355 51 -24 5 -34
2 -38 -10 -4 -9 -4 -19 0 -22 3 -4 66 -16 139 -29 l132 -22 -157 -1 -158 -1 0
390 c0 383 0 390 20 390 20 0 20 -7 20 -325z m1080 -65 l0 -390 -157 1 -158 1
132 22 c73 13 136 25 139 29 4 3 4 13 0 22 -4 12 -14 15 -38 10 -91 -15 -344
-55 -351 -55 -23 0 11 21 71 44 80 31 204 56 273 56 l49 0 0 325 c0 318 0 325
20 325 20 0 20 -7 20 -390z"/>
</g>
</svg>
